<svg xmlns="http://www.w3.org/2000/svg" xmlns:xlink="http://www.w3.org/1999/xlink" width="500" zoomAndPan="magnify" viewBox="0 0 375 374.999991" height="500" preserveAspectRatio="xMidYMid meet" version="1.0"><defs><clipPath id="593b35e0ab"><path d="M 0 27.4375 L 375 27.4375 L 375 355.9375 L 0 355.9375 Z M 0 27.4375 " clip-rule="nonzero"/></clipPath><clipPath id="48c8f9230c"><path d="M 64 27.4375 L 311 27.4375 L 311 245 L 64 245 Z M 64 27.4375 " clip-rule="nonzero"/></clipPath></defs><g clip-path="url(#593b35e0ab)"><path fill="#ffffff" d="M 76.671875 108.257812 L 47.769531 158.28125 L 0 75.59375 L 27.789062 27.503906 L 214.980469 27.503906 L 186.15625 77.535156 L 58.921875 77.535156 Z M 347.195312 27.503906 L 344.945312 27.503906 L 187.492188 300.074219 L 172 273.15625 L 114.199219 273.15625 L 161.910156 355.835938 L 213.074219 355.835938 L 374.984375 75.640625 Z M 347.195312 27.503906 " fill-opacity="1" fill-rule="nonzero"/></g><g clip-path="url(#48c8f9230c)"><path fill="#5ce1e6" d="M 185.550781 244.324219 L 97.484375 244.324219 L 64.875 187.878906 L 64.859375 187.847656 L 110.691406 108.273438 L 168.445312 108.273438 L 122.632812 187.8125 L 126.375 194.285156 L 156.65625 194.285156 L 253.019531 27.503906 L 310.816406 27.503906 Z M 185.550781 244.324219 " fill-opacity="1" fill-rule="nonzero"/></g></svg>